{"title":"Eight Men Out","uid":5469348,"size":1466981330,"categoryP":"video","categoryS":"movies","magnet":"?xt=urn:btih:7332a930ffdf83d962721e8d0293197aa495ffdc&amp;dn=Eight+Men+Out&amp;tr=udp%3A%2F%2Ftracker.openbittorrent.com%3A80&amp;tr=udp%3A%2F%2Fopen.demonii.com%3A1337&amp;tr=udp%3A%2F%2Ftracker.coppersurfer.tk%3A6969&amp;tr=udp%3A%2F%2Fexodus.desync.com%3A6969","seeders":10,"leechers":2,"uploader":"bobo66","files":-1,"time":1269796095,"description":"EIGHT MEN OUT (1988) \n\nThis is not an original upload, just passing it along, credit and thanks to &quot;Flex&quot; over at ahasharedotcom\n\n        \nEight Men Out tells the true story of the infamous 'Black Sox' scandal of 1919, in which the White Sox players deliberately lost the World Series. The movie places the scandal in the context of a labor dispute between the players and their then all-powerful team owner, and how mobster Arnold Rothstein took advantage of the dispute. The result was a human tragedy for players like &quot;Shoeless&quot; Joe Jackson.\n\n\n\n        John Cusack\t... \tGeorge 'Buck' Weaver\n\tClifton James\t... \tCharles 'Commie' Comiskey\n\tMichael Lerner\t... \tArnold Rothstein\n\tChristopher Lloyd.. \t'Sleepy' Bill Burns\n\tJohn Mahoney\t... \tWilliam 'Kid' Gleason\n\tCharlie Sheen\t... \tOscar 'Hap' Felsch\n\tDavid Strathairn... \tEddie Cicotte\n\tD.B. Sweeney\t... \tJoseph 'Shoeless Joe' Jackson\n\tMichael Rooker\t... \tArnold 'Chick' Gandil\n\tDon Harvey\t... \tCharles 'Swede' Risberg\n\n\nDownload contains 2 avi files:\n\nFormat                           : AVI\nFormat/Info                      : Audio Video Interleave\nFile size                        : AVI 1. 700 MiB  AVI 2. 699MiB\nDuration                         : AVI 1. 1h 2mn   AVI 2. 56mn 53sec\nOverall bit rate                 : 1 559 Kbps\nWriting application              : Nandub v1.0rc2\nWriting library                  : Nandub build 1852/release\n\nVideo\nID                               : 0\nFormat                           : MPEG-4 Visual\nFormat profile                   : Simple@L3\nFormat settings, BVOP            : No\nFormat settings, QPel            : No\nFormat settings, GMC             : No warppoints\nFormat settings, Matrix          : Default (MPEG)\nCodec ID                         : XVID\nCodec ID/Hint                    : XviD\nDuration                         : 1h 2mn\nBit rate                         : 1 358 Kbps\nWidth                            : 608 pixels\nHeight                           : 336 pixels\nDisplay aspect ratio             : 16:9\nFrame rate                       : 23.976 fps\nResolution                       : 8 bits\nColorimetry                      : 4:2:0\nScan type                        : Progressive\nBits/(Pixel*Frame)               : 0.277\nStream size                      : 610 MiB (87%)\nWriting library                  : XviD 0.0.09 (UTC 2003-03-25)\n\nAudio\nID                               : 1\nFormat                           : AC-3\nFormat/Info                      : Audio Coding 3\nCodec ID                         : 2000\nDuration                         : 1h 2mn\nBit rate mode                    : Constant\nBit rate                         : 192 Kbps\nChannel(s)                       : 2 channels\nChannel positions                : Front: L R\nSampling rate                    : 48.0 KHz\nStream size                      : 86.2 MiB (12%)\nAlignment                        : Split accross interleaves\nInterleave, duration             : 42 ms (1.00 video frame)\nInterleave, preload duration     : 500 ms\n\n","torrent":{"xt":"urn:btih:7332a930ffdf83d962721e8d0293197aa495ffdc","amp;dn":"Eight+Men+Out","amp;tr":["udp%3A%2F%2Ftracker.openbittorrent.com%3A80","udp%3A%2F%2Fopen.demonii.com%3A1337","udp%3A%2F%2Ftracker.coppersurfer.tk%3A6969","udp%3A%2F%2Fexodus.desync.com%3A6969"],"infoHash":"7332a930ffdf83d962721e8d0293197aa495ffdc","infoHashBuffer":{"type":"Buffer","data":[115,50,169,48,255,223,131,217,98,114,30,141,2,147,25,122,164,149,255,220]},"announce":[],"urlList":[]}}